<svg width="21" height="21" viewBox="0 0 21 21" fill="none" xmlns="http://www.w3.org/2000/svg">
<path d="M20.3841 15.9875C20.6178 16.2244 20.7929 16.5136 20.8954 16.8316C20.9979 17.1496 21.0248 17.4875 20.974 17.818C20.9231 18.1485 20.796 18.4622 20.6028 18.7338C20.4097 19.0054 20.1559 19.2272 19.8621 19.3813C18.1832 20.2879 16.2271 20.5196 14.3861 20.0299C9.50011 18.7872 2.47712 11.6916 1.24712 6.755C0.762439 4.89501 0.991774 2.91865 1.88912 1.22236C2.04161 0.925519 2.26115 0.669138 2.52996 0.473974C2.79877 0.27881 3.1093 0.150349 3.43639 0.0989918C3.76348 0.0476349 4.09794 0.0748262 4.4127 0.178364C4.72745 0.281902 5.01365 0.458876 5.24812 0.694956L7.33312 2.80051C7.63379 3.10125 7.83725 3.48696 7.91669 3.90682C7.99612 4.32669 7.94781 4.76102 7.77812 5.1526C7.59242 5.59194 7.32875 5.99325 7.00012 6.33672C4.61612 8.74538 12.4171 16.6271 14.8001 14.2174C15.1401 13.8842 15.5377 13.6168 15.9731 13.4283C16.3606 13.2566 16.7906 13.2076 17.2062 13.2879C17.6218 13.3682 18.0036 13.5739 18.3011 13.8779L20.3841 15.9875Z" fill="black"/>
</svg>
