<svg width="24" height="18" viewBox="0 0 24 18" fill="none" xmlns="http://www.w3.org/2000/svg">
<path d="M13.2505 16.7846C12.919 17.0814 12.4693 17.2481 12.0005 17.2481C11.5316 17.2481 11.0819 17.0814 10.7504 16.7846L3.25006 10.0706C2.91852 9.77387 2.73227 9.37136 2.73227 8.95166C2.73227 8.53196 2.91852 8.12945 3.25006 7.83267L10.7504 1.11874C11.0819 0.82197 11.5316 0.655244 12.0005 0.655244C12.4693 0.655244 12.919 0.82197 13.2505 1.11874C13.5821 1.41552 13.7683 1.81803 13.7683 2.23773C13.7683 2.65743 13.5821 3.05995 13.2505 3.35672L7.00024 8.95166L13.2505 14.5466C13.5821 14.8434 13.7683 15.2459 13.7683 15.6656C13.7683 16.0853 13.5821 16.4878 13.2505 16.7846Z" fill="black"/>
</svg>
